<svg width="20" height="21" viewBox="0 0 20 21" fill="none" xmlns="http://www.w3.org/2000/svg">
<path fill-rule="evenodd" clip-rule="evenodd" d="M12.3106 1.50312C11.0605 0.165628 8.93949 0.165628 7.68943 1.50312C7.06596 2.1702 6.1846 2.53527 5.27205 2.50443C3.44239 2.4426 1.9426 3.94239 2.00443 5.77205C2.03527 6.6846 1.6702 7.56596 1.00312 8.18943C-0.334372 9.43949 -0.334372 11.5605 1.00312 12.8106C1.6702 13.434 2.03527 14.3154 2.00443 15.2279C1.9426 17.0576 3.44239 18.5574 5.27205 18.4956C6.1846 18.4647 7.06596 18.8298 7.68943 19.4969C8.93949 20.8344 11.0605 20.8344 12.3106 19.4969C12.934 18.8298 13.8154 18.4647 14.7279 18.4956C16.5576 18.5574 18.0574 17.0576 17.9956 15.2279C17.9647 14.3154 18.3298 13.434 18.9969 12.8106C20.3344 11.5605 20.3344 9.43949 18.9969 8.18943C18.3298 7.56596 17.9647 6.6846 17.9956 5.77205C18.0574 3.94239 16.5576 2.4426 14.7279 2.50443C13.8154 2.53527 12.934 2.1702 12.3106 1.50312ZM14.0357 8.52489C14.3256 8.2291 14.3208 7.75425 14.0249 7.46433C13.7291 7.17441 13.2543 7.17921 12.9643 7.47504L8.75839 11.7668C8.71459 11.8115 8.67669 11.8501 8.64279 11.8843C8.61149 11.8476 8.57669 11.8062 8.53639 11.7583L7.07427 10.0176C6.80785 9.70039 6.33476 9.65929 6.0176 9.92569C5.70043 10.1921 5.65929 10.6652 5.92571 10.9824L7.38788 12.7231L7.40661 12.7454C7.52165 12.8824 7.64447 13.0287 7.76266 13.1411C7.89698 13.2689 8.09429 13.4222 8.37389 13.4804C8.51029 13.5087 8.65049 13.5141 8.78859 13.4963C9.07189 13.4597 9.28039 13.3219 9.42409 13.2048C9.55049 13.1018 9.68419 12.9653 9.80939 12.8375L9.82979 12.8167L14.0357 8.52489Z" fill="#063434"/>
</svg>
