<svg width="36" height="36" viewBox="0 0 36 36" fill="none" xmlns="http://www.w3.org/2000/svg">
<path d="M27.9153 18.0006C27.9153 20.6307 26.8705 23.153 25.0108 25.0127C23.1511 26.8725 20.6287 27.9173 17.9987 27.9173C16.3387 27.9215 14.7048 27.504 13.2503 26.7039L9.1437 27.8823C9.00121 27.9239 8.85014 27.9264 8.70632 27.8896C8.56251 27.8528 8.43124 27.778 8.32626 27.673C8.22129 27.5681 8.14648 27.4368 8.10967 27.293C8.07286 27.1492 8.07541 26.9981 8.11704 26.8556L9.28954 22.7431C8.5671 21.4164 8.15732 19.9422 8.09146 18.433C8.02561 16.9238 8.30542 15.4195 8.90954 14.0349C9.51366 12.6503 10.4261 11.422 11.5772 10.4438C12.7284 9.46563 14.0878 8.76335 15.5518 8.39061C17.0157 8.01786 18.5454 7.9845 20.0242 8.29306C21.503 8.60162 22.8918 9.24395 24.0845 10.171C25.2772 11.0981 26.2424 12.2854 26.9063 13.6424C27.5702 14.9993 27.9153 16.49 27.9153 18.0006Z" fill="#F8B90A"/>
<path d="M23.2513 18.5827H12.7513C12.5966 18.5827 12.4483 18.5212 12.3389 18.4118C12.2295 18.3024 12.168 18.154 12.168 17.9993C12.168 17.8446 12.2295 17.6963 12.3389 17.5869C12.4483 17.4775 12.5966 17.416 12.7513 17.416H23.2513C23.406 17.416 23.5544 17.4775 23.6638 17.5869C23.7732 17.6963 23.8347 17.8446 23.8347 17.9993C23.8347 18.154 23.7732 18.3024 23.6638 18.4118C23.5544 18.5212 23.406 18.5827 23.2513 18.5827Z" fill="#FFF6E7"/>
<path d="M23.2513 15.0827H12.7513C12.5966 15.0827 12.4483 15.0212 12.3389 14.9118C12.2295 14.8024 12.168 14.654 12.168 14.4993C12.168 14.3446 12.2295 14.1963 12.3389 14.0869C12.4483 13.9775 12.5966 13.916 12.7513 13.916H23.2513C23.406 13.916 23.5544 13.9775 23.6638 14.0869C23.7732 14.1963 23.8347 14.3446 23.8347 14.4993C23.8347 14.654 23.7732 14.8024 23.6638 14.9118C23.5544 15.0212 23.406 15.0827 23.2513 15.0827Z" fill="#FFF6E7"/>
<path d="M20.3347 22.0827H12.7513C12.5966 22.0827 12.4483 22.0212 12.3389 21.9118C12.2295 21.8024 12.168 21.654 12.168 21.4993C12.168 21.3446 12.2295 21.1963 12.3389 21.0869C12.4483 20.9775 12.5966 20.916 12.7513 20.916H20.3347C20.4894 20.916 20.6378 20.9775 20.7471 21.0869C20.8565 21.1963 20.918 21.3446 20.918 21.4993C20.918 21.654 20.8565 21.8024 20.7471 21.9118C20.6378 22.0212 20.4894 22.0827 20.3347 22.0827Z" fill="#FFF6E7"/>
<path d="M23.2513 32.584H20.918V31.4173H23.2513C25.5712 31.4147 27.7952 30.492 29.4356 28.8516C31.076 27.2112 31.9987 24.9872 32.0013 22.6673V22.084H33.168V22.6673C33.1651 25.2965 32.1193 27.8171 30.2602 29.6762C28.4011 31.5353 25.8805 32.5811 23.2513 32.584Z" fill="#063434"/>
<path d="M33.75 16.8331H31.4167L31.2125 15.6664C30.6644 12.5604 29.0395 9.74688 26.6233 7.71973C24.2071 5.69258 21.154 4.58145 18 4.58145C14.846 4.58145 11.7929 5.69258 9.37668 7.71973C6.96046 9.74688 5.33563 12.5604 4.7875 15.6664L4.58333 16.8331H2.25L2.41917 15.6664C2.97909 11.9347 4.85973 8.52797 7.71908 6.06565C10.5784 3.60333 14.2266 2.24902 18 2.24902C21.7734 2.24902 25.4216 3.60333 28.2809 6.06565C31.1403 8.52797 33.0209 11.9347 33.5808 15.6664L33.75 16.8331Z" fill="#063434"/>
<path d="M2.24869 15.666H5.16536C5.32007 15.666 5.46844 15.7275 5.57784 15.8369C5.68723 15.9463 5.74869 16.0946 5.74869 16.2493V22.0827C5.74869 22.2374 5.68723 22.3858 5.57784 22.4952C5.46844 22.6045 5.32007 22.666 5.16536 22.666H2.24869C1.93927 22.666 1.64253 22.5431 1.42373 22.3243C1.20494 22.1055 1.08203 21.8088 1.08203 21.4993V16.8327C1.08203 16.5233 1.20494 16.2265 1.42373 16.0077C1.64253 15.7889 1.93927 15.666 2.24869 15.666Z" fill="#063434"/>
<path d="M33.75 22.666H30.8333C30.6786 22.666 30.5302 22.6045 30.4208 22.4951C30.3114 22.3858 30.25 22.2374 30.25 22.0827V16.2493C30.25 16.0946 30.3114 15.9463 30.4208 15.8369C30.5302 15.7275 30.6786 15.666 30.8333 15.666H33.75C34.0594 15.666 34.3561 15.7889 34.5749 16.0077C34.7937 16.2265 34.9166 16.5233 34.9166 16.8327V21.4993C34.9166 21.8088 34.7937 22.1055 34.5749 22.3243C34.3561 22.5431 34.0594 22.666 33.75 22.666Z" fill="#063434"/>
<path d="M19.75 30.25H16.25C15.2835 30.25 14.5 31.0335 14.5 32C14.5 32.9665 15.2835 33.75 16.25 33.75H19.75C20.7165 33.75 21.5 32.9665 21.5 32C21.5 31.0335 20.7165 30.25 19.75 30.25Z" fill="#063434"/>
</svg>
