<svg width="30" height="36" viewBox="0 0 30 36" fill="none" xmlns="http://www.w3.org/2000/svg">
<g clip-path="url(#clip0_29269_1382)">
<path d="M5.02259 10.977C-2.58083 21.6067 2.1302 28.6201 6.0585 32.1528C6.84216 32.8576 7.74137 33.4318 8.70436 33.8603C15.9547 37.0861 21.6 35.0723 25.2784 31.9548C28.6439 29.1026 29.1358 24.3773 28.8539 19.9747C28.6167 16.2716 28.6522 13.4272 29.4117 12.0934C26.5949 12.5743 24.5739 14.1258 23.9156 15.7002C22.7992 5.91026 18.9347 1.53054 6.05347 0.5C9.48819 5.39501 12.521 13.8997 7.27458 15.7002C5.02259 16.4732 4.82219 13.9541 5.02259 10.977Z" fill="url(#paint0_linear_29269_1382)"/>
<path d="M7.79428 19.9359C3.62727 26.2838 7.08252 30.837 9.62066 33.1483C10.4 33.858 11.2941 34.4433 12.2802 34.8155C14.9359 35.8179 17.2857 35.6136 19.1957 34.8447C23.2881 33.1972 22.5822 28.0538 23.5356 23.7465C23.6846 23.0731 23.9884 22.4303 24.5285 21.7852C22.3552 21.7852 21.2212 22.1159 20.3708 23.0136C20.796 18.0054 19.4939 14.5603 13.0644 11.1875C14.4347 15.2982 13.3782 23.2026 11.3466 24.1556C10.1116 24.7349 8.27554 24.1556 7.79428 19.9359Z" fill="url(#paint1_linear_29269_1382)"/>
</g>
<defs>
<linearGradient id="paint0_linear_29269_1382" x1="0.968972" y1="0.499794" x2="35.229" y2="28.3419" gradientUnits="userSpaceOnUse">
<stop stop-color="#FD7C42"/>
<stop offset="0.494792" stop-color="#FF4F00"/>
<stop offset="1" stop-color="#C6450C"/>
</linearGradient>
<linearGradient id="paint1_linear_29269_1382" x1="5.85176" y1="11.1874" x2="29.3396" y2="29.2342" gradientUnits="userSpaceOnUse">
<stop stop-color="#F2C72F"/>
<stop offset="0.552083" stop-color="#FB9E14"/>
<stop offset="1" stop-color="#E4680D"/>
</linearGradient>
<clipPath id="clip0_29269_1382">
<rect width="30" height="36" fill="white"/>
</clipPath>
</defs>
</svg>
