<svg width="545" height="542" viewBox="0 0 545 542" fill="none" xmlns="http://www.w3.org/2000/svg">
<path d="M125.34 0.00568286C126.376 0.00838813 127.412 0.0110934 128.479 0.0138806C147.872 0.0897431 166.922 1.5753 186.171 3.81287C195.459 4.88731 204.763 5.82665 214.064 6.78958C217.148 7.11106 220.232 7.43904 223.315 7.76902C225.239 7.97292 227.164 8.17682 229.088 8.38071C229.93 8.47211 230.772 8.56351 231.639 8.65767C245.851 10.1517 259.904 10.5615 274.182 10.5037C277.422 10.4907 280.663 10.4844 283.904 10.4796C291.954 10.4664 300.005 10.4423 308.056 10.4183C314.872 10.3983 321.688 10.3828 328.504 10.3728C331.652 10.3664 334.8 10.3539 337.949 10.3411C355.818 10.2957 373.787 10.5337 391.548 12.6755C392.618 12.8032 393.689 12.9309 394.792 13.0624C427.314 17.1882 457.221 26.9882 482.512 48.3757C483.347 49.0747 484.182 49.7737 485.042 50.4938C518.356 79.3059 530.908 124.01 535.491 166.211C535.64 167.557 535.64 167.557 535.791 168.93C538.424 193.84 538.41 219.054 538.57 244.079C538.614 250.786 538.672 257.493 538.74 264.199C538.747 264.89 538.753 265.581 538.76 266.293C538.998 289.46 540.265 312.443 542.051 335.537C543.771 357.866 544.992 380.038 544.987 402.444C544.991 403.586 544.995 404.728 544.999 405.904C545.058 441.017 540.2 480.651 515.499 507.735C514.173 509.198 514.173 509.198 512.82 510.691C498.77 525.691 480.425 536.106 459.615 537.014C427.065 537.857 398.977 526.563 369.556 513.726C320.764 491.88 320.764 491.88 268.596 481.771C267.543 481.7 266.491 481.629 265.406 481.556C247.747 480.993 230.261 485.267 213.618 490.758C212.317 491.186 212.317 491.186 210.989 491.621C192.578 497.81 175.149 506.286 157.58 514.491C99.0662 541.797 99.0662 541.797 69.487 541.937C67.8779 541.968 67.8779 541.968 66.2363 541.999C49.2648 542.081 33.3886 535.247 21.153 523.554C6.14555 508.304 1.32189 490.199 1.32728 469.238C1.79322 435.69 16.2221 403.676 27.416 372.519C53.407 300.153 47.6325 249.283 23.0741 177.454C-5.58069 93.6226 -5.58069 93.6226 12.2985 54.8939C15.9895 47.6962 20.2916 41.4091 25.6917 35.3938C26.892 34.0538 26.892 34.0538 28.1165 32.6866C53.5186 5.84379 89.9449 -0.213847 125.34 0.00568286Z" fill="black"/>
</svg>
