<svg width="77" height="57" viewBox="0 0 77 57" fill="none" xmlns="http://www.w3.org/2000/svg">
<g clip-path="url(#clip0_728_1379)">
<path d="M69.3929 57.2142H7.17857C3.20643 57.2142 0 54.0078 0 50.0356V6.96422C0 2.99207 3.20643 -0.214355 7.17857 -0.214355H69.3929C73.365 -0.214355 76.5714 2.99207 76.5714 6.96422V50.0356C76.5714 54.0078 73.365 57.2142 69.3929 57.2142ZM7.17857 4.57136C5.83857 4.57136 4.78571 5.62422 4.78571 6.96422V50.0356C4.78571 51.3756 5.83857 52.4285 7.17857 52.4285H69.3929C70.7329 52.4285 71.7857 51.3756 71.7857 50.0356V6.96422C71.7857 5.62422 70.7329 4.57136 69.3929 4.57136H7.17857Z" fill="#55642B"/>
<path d="M38.2857 37.8802C34.9357 37.8802 31.8728 36.5402 29.5757 34.0995L4.4507 7.39518C3.54141 6.43804 3.58927 4.90661 4.54641 3.99733C5.50355 3.08804 7.03498 3.1359 7.94427 4.09304L33.0693 30.7973C35.7971 33.7166 40.7743 33.7166 43.5021 30.7973L68.6271 4.1409C69.5364 3.18376 71.0678 3.1359 72.025 4.04518C72.9821 4.95447 73.03 6.4859 72.1207 7.44304L46.9957 34.1473C44.6986 36.588 41.6357 37.928 38.2857 37.928V37.8802Z" fill="#55642B"/>
</g>
<defs>
<clipPath id="clip0_728_1379">
<rect width="77" height="57" fill="white"/>
</clipPath>
</defs>
</svg>
