<svg width="40" height="40" viewBox="0 0 40 40" fill="none" xmlns="http://www.w3.org/2000/svg">
<g clip-path="url(#clip0_478_3706)">
<path d="M39.3633 20.0008C39.3633 8.95507 30.6328 0.000774384 19.8633 0.000774384C9.09372 0.000774384 0.363281 8.95507 0.363281 20.0008C0.363281 29.9834 7.49415 38.2574 16.8164 39.7578V25.782H11.8652V20.0008H16.8164V15.5945C16.8164 10.582 19.7276 7.81327 24.1818 7.81327C26.3153 7.81327 28.5469 8.2039 28.5469 8.2039V13.1258H26.088C23.6656 13.1258 22.9102 14.6675 22.9102 16.2491V20.0008H28.3184L27.4538 25.782H22.9102V39.7578C32.2324 38.2574 39.3633 29.9834 39.3633 20.0008Z" fill="#1877F2"/>
<path d="M27.4538 25.7812L28.3184 20H22.9102V16.2483C22.9102 14.6667 23.6656 13.125 26.088 13.125H28.5469V8.20312C28.5469 8.20312 26.3153 7.8125 24.1818 7.8125C19.7276 7.8125 16.8164 10.5812 16.8164 15.5938V20H11.8652V25.7812H16.8164V39.757C17.8092 39.9168 18.8267 40 19.8633 40C20.8998 40 21.9174 39.9168 22.9102 39.757V25.7812H27.4538Z" fill="white"/>
</g>
<defs>
<clipPath id="clip0_478_3706">
<rect width="39" height="40" fill="white" transform="translate(0.363281)"/>
</clipPath>
</defs>
</svg>
