<svg width="64" height="64" viewBox="0 0 64 64" fill="none" xmlns="http://www.w3.org/2000/svg">
<g clip-path="url(#clip0_453_1688)">
<path d="M32.0104 0C18.6507 0 14.7435 0.0137875 13.984 0.0767998C11.2424 0.304757 9.53641 0.736554 7.67778 1.66215C6.24545 2.37362 5.1158 3.19829 4.00093 4.35433C1.97056 6.46257 0.740019 9.05626 0.294555 12.1394C0.0779912 13.6361 0.0149784 13.9413 0.00218238 21.5866C-0.00272798 24.135 0.00218238 27.4888 0.00218238 31.9874C0.00218238 45.3399 0.0169376 49.2443 0.0809416 50.0025C0.30244 52.671 0.720812 54.3499 1.60681 56.1864C3.30003 59.7018 6.53386 62.3408 10.3436 63.3255C11.6628 63.6652 13.1197 63.8523 14.9901 63.9409C15.7826 63.9754 23.8598 64 31.942 64C40.0242 64 48.1064 63.9901 48.8791 63.9508C51.0449 63.8488 52.3025 63.68 53.693 63.3205C57.5274 62.3309 60.7022 59.7313 62.4298 56.1667C63.2986 54.3745 63.7391 52.6316 63.9385 50.1024C63.9818 49.551 64 40.7591 64 31.9791C64 23.1975 63.9803 14.4219 63.937 13.8704C63.7352 11.3004 63.2947 9.57226 62.3978 7.74563C61.662 6.25036 60.8449 5.1337 59.6587 3.99198C57.5417 1.96939 54.9526 0.738514 51.8674 0.293437C50.3725 0.0772839 50.0748 0.0132797 42.4257 0H32.0104Z" fill="url(#paint0_radial_453_1688)"/>
<path d="M32.0104 0C18.6507 0 14.7435 0.0137875 13.984 0.0767998C11.2424 0.304757 9.53641 0.736554 7.67778 1.66215C6.24545 2.37362 5.1158 3.19829 4.00093 4.35433C1.97056 6.46257 0.740019 9.05626 0.294555 12.1394C0.0779912 13.6361 0.0149784 13.9413 0.00218238 21.5866C-0.00272798 24.135 0.00218238 27.4888 0.00218238 31.9874C0.00218238 45.3399 0.0169376 49.2443 0.0809416 50.0025C0.30244 52.671 0.720812 54.3499 1.60681 56.1864C3.30003 59.7018 6.53386 62.3408 10.3436 63.3255C11.6628 63.6652 13.1197 63.8523 14.9901 63.9409C15.7826 63.9754 23.8598 64 31.942 64C40.0242 64 48.1064 63.9901 48.8791 63.9508C51.0449 63.8488 52.3025 63.68 53.693 63.3205C57.5274 62.3309 60.7022 59.7313 62.4298 56.1667C63.2986 54.3745 63.7391 52.6316 63.9385 50.1024C63.9818 49.551 64 40.7591 64 31.9791C64 23.1975 63.9803 14.4219 63.937 13.8704C63.7352 11.3004 63.2947 9.57226 62.3978 7.74563C61.662 6.25036 60.8449 5.1337 59.6587 3.99198C57.5417 1.96939 54.9526 0.738514 51.8674 0.293437C50.3725 0.0772839 50.0748 0.0132797 42.4257 0H32.0104Z" fill="url(#paint1_radial_453_1688)"/>
<path d="M32.0104 0C18.6507 0 14.7435 0.0137875 13.984 0.0767998C11.2424 0.304757 9.53641 0.736554 7.67778 1.66215C6.24545 2.37362 5.1158 3.19829 4.00093 4.35433C1.97056 6.46257 0.740019 9.05626 0.294555 12.1394C0.0779912 13.6361 0.0149784 13.9413 0.00218238 21.5866C-0.00272798 24.135 0.00218238 27.4888 0.00218238 31.9874C0.00218238 45.3399 0.0169376 49.2443 0.0809416 50.0025C0.30244 52.671 0.720812 54.3499 1.60681 56.1864C3.30003 59.7018 6.53386 62.3408 10.3436 63.3255C11.6628 63.6652 13.1197 63.8523 14.9901 63.9409C15.7826 63.9754 23.8598 64 31.942 64C40.0242 64 48.1064 63.9901 48.8791 63.9508C51.0449 63.8488 52.3025 63.68 53.693 63.3205C57.5274 62.3309 60.7022 59.7313 62.4298 56.1667C63.2986 54.3745 63.7391 52.6316 63.9385 50.1024C63.9818 49.551 64 40.7591 64 31.9791C64 23.1975 63.9803 14.4219 63.937 13.8704C63.7352 11.3004 63.2947 9.57226 62.3978 7.74563C61.662 6.25036 60.8449 5.1337 59.6587 3.99198C57.5417 1.96939 54.9526 0.738514 51.8674 0.293437C50.3725 0.0772839 50.0748 0.0132797 42.4257 0H32.0104Z" fill="url(#paint2_radial_453_1688)"/>
<path d="M32.0104 0C18.6507 0 14.7435 0.0137875 13.984 0.0767998C11.2424 0.304757 9.53641 0.736554 7.67778 1.66215C6.24545 2.37362 5.1158 3.19829 4.00093 4.35433C1.97056 6.46257 0.740019 9.05626 0.294555 12.1394C0.0779912 13.6361 0.0149784 13.9413 0.00218238 21.5866C-0.00272798 24.135 0.00218238 27.4888 0.00218238 31.9874C0.00218238 45.3399 0.0169376 49.2443 0.0809416 50.0025C0.30244 52.671 0.720812 54.3499 1.60681 56.1864C3.30003 59.7018 6.53386 62.3408 10.3436 63.3255C11.6628 63.6652 13.1197 63.8523 14.9901 63.9409C15.7826 63.9754 23.8598 64 31.942 64C40.0242 64 48.1064 63.9901 48.8791 63.9508C51.0449 63.8488 52.3025 63.68 53.693 63.3205C57.5274 62.3309 60.7022 59.7313 62.4298 56.1667C63.2986 54.3745 63.7391 52.6316 63.9385 50.1024C63.9818 49.551 64 40.7591 64 31.9791C64 23.1975 63.9803 14.4219 63.937 13.8704C63.7352 11.3004 63.2947 9.57226 62.3978 7.74563C61.662 6.25036 60.8449 5.1337 59.6587 3.99198C57.5417 1.96939 54.9526 0.738514 51.8674 0.293437C50.3725 0.0772839 50.0748 0.0132797 42.4257 0H32.0104Z" fill="url(#paint3_radial_453_1688)"/>
<path d="M32.0125 8.21777C25.55 8.21777 24.739 8.246 22.2007 8.36143C19.6675 8.47735 17.9384 8.87811 16.4253 9.46614C14.8603 10.0735 13.5327 10.8859 12.21 12.208C10.8864 13.5297 10.0734 14.8563 9.46362 16.4197C8.87368 17.9321 8.47212 19.6604 8.35812 22.1908C8.2446 24.7271 8.21484 25.5381 8.21484 31.9958C8.21484 38.4535 8.2436 39.2614 8.3586 41.7978C8.47512 44.3291 8.87617 46.057 9.46411 47.5689C10.0724 49.1328 10.8854 50.4594 12.2085 51.7811C13.5307 53.1037 14.8583 53.9181 16.4224 54.5254C17.9363 55.1135 19.666 55.5142 22.1988 55.6302C24.737 55.7455 25.5475 55.7738 32.0095 55.7738C38.4725 55.7738 39.2811 55.7456 41.8193 55.6301C44.3526 55.5142 46.0837 55.1135 47.5977 54.5254C49.1622 53.9181 50.4879 53.1037 51.81 51.7811C53.1336 50.4594 53.9467 49.1328 54.5564 47.5694C55.1414 46.057 55.543 44.3287 55.6619 41.7983C55.7759 39.262 55.8057 38.4535 55.8057 31.9958C55.8057 25.538 55.7759 24.7276 55.6619 22.1913C55.543 19.6599 55.1414 17.9321 54.5564 16.4202C53.9467 14.8563 53.1336 13.5297 51.81 12.208C50.4864 10.8854 49.1627 10.0729 47.5962 9.46612C46.0792 8.87811 44.3491 8.47735 41.8158 8.36143C39.2776 8.246 38.4695 8.21777 32.0051 8.21777H32.0125ZM29.8778 12.5028C30.5114 12.5018 31.2183 12.5028 32.0125 12.5028C38.3659 12.5028 39.119 12.5256 41.6279 12.6395C43.948 12.7455 45.2072 13.1329 46.046 13.4583C47.1565 13.8893 47.9482 14.4045 48.7805 15.2367C49.6134 16.069 50.1289 16.8616 50.5612 17.9712C50.8869 18.8084 51.2751 20.0666 51.3807 22.385C51.4947 24.8916 51.5195 25.6446 51.5195 31.9903C51.5195 38.3361 51.4947 39.0891 51.3807 41.5957C51.2746 43.914 50.8869 45.1723 50.5612 46.0094C50.1299 47.1191 49.6134 47.9092 48.7805 48.7409C47.9477 49.5732 47.1569 50.0884 46.046 50.5193C45.2082 50.8463 43.948 51.2327 41.6279 51.3387C39.1195 51.4526 38.3659 51.4774 32.0125 51.4774C25.6586 51.4774 24.9055 51.4526 22.3971 51.3387C20.077 51.2317 18.8178 50.8443 17.9785 50.5189C16.868 50.0879 16.0748 49.5727 15.242 48.7405C14.4092 47.9082 13.8936 47.1176 13.4613 46.0075C13.1356 45.1703 12.7474 43.912 12.6418 41.5937C12.5278 39.0871 12.505 38.3341 12.505 31.9844C12.505 25.6347 12.5278 24.8857 12.6418 22.3791C12.7479 20.0607 13.1356 18.8025 13.4613 17.9643C13.8926 16.8546 14.4092 16.062 15.242 15.2298C16.0748 14.3976 16.868 13.8824 17.9785 13.4504C18.8173 13.1235 20.077 12.7371 22.3971 12.6306C24.5922 12.5315 25.4429 12.5018 29.8778 12.4968L29.8778 12.5028ZM44.7144 16.4509C43.138 16.4509 41.8589 17.7275 41.8589 19.3033C41.8589 20.8786 43.138 22.1566 44.7144 22.1566C46.2909 22.1566 47.5699 20.8786 47.5699 19.3033C47.5699 17.728 46.2909 16.4499 44.7144 16.4499L44.7144 16.4509ZM32.0125 19.7848C25.2639 19.7848 19.7924 25.2522 19.7924 31.9958C19.7924 38.7393 25.2639 44.2043 32.0125 44.2043C38.7611 44.2043 44.2306 38.7393 44.2306 31.9958C44.2306 25.2522 38.7606 19.7848 32.012 19.7848H32.0125ZM32.0125 24.0698C36.3929 24.0698 39.9444 27.6182 39.9444 31.9958C39.9444 36.3729 36.3929 39.9218 32.0125 39.9218C27.6316 39.9218 24.0806 36.3729 24.0806 31.9958C24.0806 27.6182 27.6316 24.0698 32.0125 24.0698Z" fill="white"/>
</g>
<defs>
<radialGradient id="paint0_radial_453_1688" cx="0" cy="0" r="1" gradientUnits="userSpaceOnUse" gradientTransform="translate(61.9335 29.9976) rotate(164.25) scale(40.8924 29.461)">
<stop stop-color="#FF005F"/>
<stop offset="1" stop-color="#FC01D8"/>
</radialGradient>
<radialGradient id="paint1_radial_453_1688" cx="0" cy="0" r="1" gradientUnits="userSpaceOnUse" gradientTransform="translate(16.9995 68.9293) rotate(-90) scale(51.086 54.2012)">
<stop stop-color="#FFCC00"/>
<stop offset="0.1242" stop-color="#FFCC00"/>
<stop offset="0.5672" stop-color="#FE4A05"/>
<stop offset="0.6942" stop-color="#FF0F3F"/>
<stop offset="1" stop-color="#FE0657" stop-opacity="0"/>
</radialGradient>
<radialGradient id="paint2_radial_453_1688" cx="0" cy="0" r="1" gradientUnits="userSpaceOnUse" gradientTransform="translate(33.6172 63.0974) rotate(-59.8703) scale(21.1245 27.5017)">
<stop stop-color="#FFCC00"/>
<stop offset="1" stop-color="#FFCC00" stop-opacity="0"/>
</radialGradient>
<radialGradient id="paint3_radial_453_1688" cx="0" cy="0" r="1" gradientUnits="userSpaceOnUse" gradientTransform="translate(8.68343 2.60606) rotate(164.274) scale(40.4388 13.7775)">
<stop stop-color="#780CFF"/>
<stop offset="1" stop-color="#820BFF" stop-opacity="0"/>
</radialGradient>
<clipPath id="clip0_453_1688">
<rect width="64" height="64" fill="white"/>
</clipPath>
</defs>
</svg>
