<svg width="201" height="60" viewBox="0 0 201 60" fill="none" xmlns="http://www.w3.org/2000/svg">
<path d="M4.17731 1.26196C3.54167 1.69018 2.86063 2.6078 2.58821 3.34189C2.3612 4.07598 1.68015 4.87125 1.08992 5.05478C0.181861 5.36065 0.0456531 5.72769 0.181861 7.68527C0.272667 9.52051 0.499681 10.0099 1.36233 10.1323C2.67901 10.3769 3.22385 11.9063 3.04224 14.8427C2.81522 18.5743 2.3612 19.9202 1.18072 20.2872C0.272667 20.5931 0.0910559 21.0825 0.0910559 22.8565C0.0910559 24.3247 0.31807 25.0588 0.908306 25.3035C2.76982 26.0988 3.04224 26.5882 3.04224 29.5857C3.04224 33.2562 2.4066 35.2138 1.22613 35.4585C0.545084 35.5808 0.272667 36.1925 0.181861 37.9054C0.0456531 39.9242 0.181861 40.2301 1.22613 40.5971C2.72442 41.0865 3.26925 42.5547 3.08764 45.4911C2.81522 48.9168 2.4066 50.018 1.18072 50.6909C-0.362972 51.425 -0.408375 55.2178 1.13532 55.8295C1.68015 56.0742 2.72442 56.9918 3.40546 57.9095C4.58593 59.3777 4.99456 59.5 8.71758 59.5C12.3044 59.5 12.8492 59.3777 13.8935 58.0318C14.5291 57.2365 15.528 56.2578 16.0728 55.8907C17.5711 54.9119 17.5711 50.9968 16.1182 50.7521C15.074 50.5685 14.7562 49.2839 14.5291 44.2676C14.3929 42.1876 14.5745 41.7594 15.755 40.8418C16.8447 40.0465 17.1171 39.4348 17.1171 37.7219C17.1171 36.009 16.9355 35.5808 16.1182 35.4585C15.074 35.2749 14.7562 33.9903 14.5291 28.9128C14.3929 26.6493 14.5291 26.4046 15.8912 25.6094C17.1171 24.8753 17.3441 24.3859 17.3441 22.673C17.3441 21.0825 17.1171 20.5931 16.209 20.2872C15.074 19.9202 15.0286 19.7366 14.3929 13.9251C14.2113 11.8451 14.8016 10.4993 16.209 10.0099C17.2079 9.64286 17.3895 9.33698 17.2533 7.6241C17.1625 6.33944 16.7993 5.48299 16.1182 5.05478C15.5734 4.7489 14.9378 3.83129 14.6653 3.09719C14.3929 2.30193 13.6665 1.38431 12.9854 1.07844C11.3509 0.221996 5.53939 0.344345 4.17731 1.26196ZM12.94 2.42427C13.3941 2.73014 13.9389 3.64776 14.1659 4.5042C14.4383 5.36065 14.9832 5.97239 15.4826 5.97239C15.9366 5.97239 16.4361 6.40061 16.6177 6.89001C16.8447 7.74645 15.8004 9.64286 15.074 9.64286C14.847 9.64286 14.1659 10.3158 13.5757 11.0499C11.578 13.7415 5.13076 13.7415 3.63247 10.9887C3.31465 10.4381 2.452 9.58168 1.77096 9.15346C0.227264 8.23584 0.272667 6.40061 1.81636 6.09474C2.4066 5.97239 2.90603 5.29947 3.08764 4.44303C3.49626 2.24075 6.44745 1.07844 10.3067 1.62901C11.3055 1.75135 12.486 2.1184 12.94 2.42427ZM9.85265 14.3533C11.0785 14.1698 12.486 13.8639 12.94 13.6192C13.5757 13.2521 13.7119 13.4968 13.7119 14.8427C13.7119 16.1885 13.5757 16.4332 12.94 16.0662C11.3963 15.2709 7.12849 15.0262 5.44858 15.6379C3.90489 16.1885 3.72328 16.1273 3.72328 15.2097C3.72328 13.558 4.0865 13.3745 5.90261 14.0474C6.81067 14.4145 8.58138 14.5368 9.85265 14.3533ZM13.3487 18.0849C13.8027 18.5743 14.2567 19.4919 14.3929 20.1037C14.5745 20.7766 15.074 21.266 15.5734 21.266C16.209 21.266 16.4361 21.6942 16.4361 22.7954C16.4361 23.8965 16.209 24.3247 15.528 24.3247C15.074 24.3247 14.4383 24.8753 14.1659 25.5482C13.4849 27.2611 11.7142 28.1175 8.67218 28.1175C6.03882 28.1175 3.58707 26.894 3.13304 25.3035C2.99683 24.8141 2.4066 24.3247 1.81636 24.2024C0.408875 23.9577 0.363473 21.633 1.77096 21.3883C2.4066 21.266 2.90603 20.6542 3.08764 19.7366C3.36006 18.3296 4.72214 17.2897 6.90147 16.8003C8.80839 16.372 12.5314 17.1061 13.3487 18.0849ZM8.9446 29.5245C10.2159 29.5245 11.7596 29.341 12.486 29.0351C13.5757 28.6069 13.7119 28.7293 13.7119 30.1975C13.7119 31.4821 13.5757 31.7268 12.94 31.3598C11.4872 30.5033 7.12849 30.3198 5.40318 30.9315C3.76868 31.5433 3.72328 31.4821 3.72328 30.0139C3.72328 28.6069 3.81408 28.5457 5.22157 29.0351C5.99342 29.2798 7.71872 29.5245 8.9446 29.5245ZM12.032 32.3386C13.3487 32.828 13.8935 33.4397 14.2567 34.7855C14.5291 35.8867 15.0286 36.5596 15.528 36.5596C16.0274 36.5596 16.4815 36.8043 16.6177 37.1102C17.0717 38.089 16.3907 39.6183 15.4826 39.6183C14.9832 39.6183 14.4837 40.0465 14.3021 40.5359C13.8481 42.1876 11.578 43.2888 8.71758 43.2888C5.81181 43.2888 4.31351 42.6159 3.36006 40.7806C3.04224 40.1689 2.3612 39.6183 1.77096 39.496C0.454278 39.2513 0.363473 36.9266 1.68015 36.6819C2.22499 36.5596 2.86063 35.7643 3.13304 34.7244C3.90489 32.0327 8.12735 30.8704 12.032 32.3386ZM8.71758 44.8181C9.85265 44.8181 11.4418 44.5734 12.259 44.3287C13.6211 43.8394 13.7119 43.9005 13.7119 45.3687C13.7119 46.8369 13.6211 46.8369 12.3044 46.2252C11.4872 45.8581 9.39863 45.7358 7.3101 45.9193C3.95029 46.2252 3.72328 46.164 3.72328 45.0017C3.72328 43.9617 3.90489 43.8394 5.22157 44.3287C5.99342 44.5734 7.58252 44.8181 8.71758 44.8181ZM12.032 47.6322C13.2125 48.0604 13.8935 48.7333 14.1659 49.7733C14.3929 50.5685 14.8016 51.2415 15.0286 51.2415C15.8004 51.2415 16.8447 53.0767 16.6177 53.9943C16.4361 54.4837 15.8458 54.9119 15.301 54.9119C14.6653 54.9119 14.1205 55.4013 13.9389 56.0742C13.5757 57.6648 11.3963 58.7659 8.53597 58.7047C5.94801 58.7047 4.31351 57.8483 3.36006 56.0742C3.04224 55.4625 2.3612 54.9119 1.81636 54.7896C0.363473 54.5449 0.227264 52.6485 1.58935 51.792C2.22499 51.425 2.95143 50.4462 3.22385 49.6509C3.9957 47.2651 8.39977 46.2863 12.032 47.6322Z" fill="#37411C"/>
<path d="M27.7882 21.5108V37.7832H29.6043H31.4204V31.1152V24.4472L37.232 24.2025C43.7246 23.9578 45.3591 23.2237 46.8574 19.8591C48.1287 17.0451 48.0832 12.2735 46.7212 9.5818C44.9959 6.09485 43.8608 5.66663 35.4159 5.48311L27.7882 5.29959V21.5108ZM42.0447 9.88767C44.0424 10.9888 44.8596 13.6805 44.1332 16.6169C43.4068 19.6144 41.2274 20.6544 35.7337 20.6544H31.4204V14.8428V9.03123H35.9607C38.8211 9.03123 41.0912 9.3371 42.0447 9.88767Z" fill="#37411C"/>
<path d="M74.5536 21.572V37.7832H76.1427H77.7318V21.572V5.36076H76.1427H74.5536V21.572Z" fill="#37411C"/>
<path d="M126.219 10.6826C126.083 13.4967 126.037 13.619 124.63 13.8025C123.313 13.986 123.131 14.2307 123.131 15.8213C123.131 17.473 123.268 17.5953 124.72 17.5953H126.31V26.4656C126.31 35.1524 126.355 35.4583 127.445 36.9265C128.443 38.2723 128.898 38.4558 131.213 38.2723C133.756 38.0888 133.801 38.0888 133.937 36.1312C134.073 34.1736 134.028 34.1124 132.303 34.2348C131.349 34.2348 130.305 34.1124 130.033 33.8677C129.669 33.5619 129.488 30.8702 129.488 25.548V17.6565L131.667 17.473C133.619 17.2895 133.801 17.1671 133.937 15.5766C134.073 13.986 134.028 13.9249 131.803 13.9249H129.488V10.8662V7.80743H127.944C126.4 7.80743 126.355 7.86861 126.219 10.6826Z" fill="#37411C"/>
<path d="M58.2081 13.2518C54.5304 14.2918 52.0787 17.2281 51.1252 21.755C49.3091 30.1971 52.9413 37.4157 59.4339 38.211C66.4714 39.0674 70.9662 33.3782 70.3306 24.2632C70.0128 19.5528 68.5145 16.3717 65.8357 14.6588C63.5656 13.1906 60.4328 12.6401 58.2081 13.2518ZM63.9288 17.9622C66.8346 19.8586 68.0605 26.2208 66.3352 30.5642C65.0185 33.8676 59.6156 35.2746 56.8006 33.0723C52.9413 30.0136 53.35 20.2869 57.4362 17.9011C59.3885 16.7387 62.0673 16.7387 63.9288 17.9622Z" fill="#37411C"/>
<path d="M88.4907 13.5584C84.0866 15.2101 81.7711 19.2476 81.7711 25.4263C81.7257 33.8071 85.0401 38.0894 91.5781 38.0894C95.4373 38.0894 97.208 37.2329 99.115 34.5412C102.112 30.3202 102.157 21.2664 99.1604 16.8007C97.0718 13.6196 92.2137 12.1514 88.4907 13.5584ZM94.7563 17.8406C98.7063 20.1041 99.342 28.6073 95.846 32.5837C94.6655 33.8683 93.9844 34.113 91.5781 34.113C89.1717 34.113 88.4907 33.8683 87.3102 32.5837C83.905 28.6685 84.4499 20.1653 88.3091 17.9018C90.216 16.8007 92.804 16.7395 94.7563 17.8406Z" fill="#37411C"/>
<path d="M141.747 13.2511C138.296 14.2299 136.753 16.4322 136.753 20.3473C136.753 24.9354 137.979 26.0366 144.88 27.6883C149.102 28.6671 149.92 29.2788 149.92 31.4811C149.92 32.5822 149.511 33.194 148.33 33.8669C144.925 35.7633 140.249 34.4175 139.658 31.3587C139.431 30.0741 139.114 29.8294 137.57 29.8294C135.754 29.8294 135.754 29.8294 136.026 31.787C136.616 35.8245 139.795 38.3326 144.244 38.3938C149.965 38.3938 153.098 35.7633 153.098 30.9305C153.098 26.0977 151.963 25.0578 144.971 23.4061C140.794 22.4273 139.931 21.8155 139.931 19.6744C139.931 15.8204 147.967 15.4534 149.238 19.2462C149.783 20.9591 152.644 21.3261 152.644 19.7356C152.644 17.8392 151.282 15.2699 149.783 14.3523C147.922 13.1288 143.926 12.5782 141.747 13.2511Z" fill="#37411C"/>
<path d="M162.86 13.3741C156.141 15.5764 153.507 27.3219 158.138 34.4181C161.861 40.1073 170.76 39.4344 173.893 33.2558C175.21 30.6253 175.164 30.4418 173.257 30.4418C172.077 30.4418 171.169 30.9312 170.034 32.277C168.717 33.8676 168.127 34.1123 165.993 34.1123C162.179 34.1123 159.455 31.6041 159.455 28.1783V26.7713H167.446H175.482L175.21 23.5903C174.847 19.6751 173.167 16.1882 170.897 14.5976C168.763 13.1294 165.221 12.64 162.86 13.3741ZM168.763 17.8399C170.125 18.6351 171.714 21.388 171.714 23.1009C171.714 23.4679 169.58 23.7126 165.584 23.7126C161.589 23.7126 159.455 23.4679 159.455 23.1009C159.455 22.7338 159.773 21.6327 160.091 20.7151C161.407 17.4116 165.494 16.0046 168.763 17.8399Z" fill="#37411C"/>
<path d="M103.382 15.1477C103.564 15.8206 105.289 21.1428 107.242 26.9543L110.783 37.4763H112.645H114.552L118.365 25.8532C120.499 19.491 122.225 14.1689 122.225 14.0465C122.225 13.9242 121.362 13.9242 120.318 14.0465L118.456 14.23L115.687 23.8344C114.143 29.1566 112.826 33.5 112.69 33.5C112.554 33.5 111.146 29.0954 109.603 23.7121L106.697 13.9242H104.881C103.292 13.9242 103.11 14.0465 103.382 15.1477Z" fill="#37411C"/>
<path d="M176.799 14.3534C176.935 14.5981 178.706 19.9815 180.794 26.2824L184.608 37.7832H186.47H188.286L192.054 26.2824C194.097 19.9815 195.777 14.6593 195.777 14.3534C195.777 14.1087 195.005 13.9252 194.097 13.9252H192.372L189.466 23.7743C187.877 29.1576 186.515 33.4398 186.424 33.3175C186.333 33.1951 184.971 28.8517 183.382 23.6519L180.567 14.2311L178.57 14.0475C177.525 13.9252 176.708 14.0475 176.799 14.3534Z" fill="#37411C"/>
<path d="M27.153 48.6111C26.699 49.284 26.8352 56.7473 27.3346 56.7473C27.607 56.7473 27.7886 55.2791 27.8341 53.5051L27.8795 50.324L28.9691 53.5051C29.5594 55.2791 30.2404 56.7473 30.4674 56.7473C30.6944 56.7473 31.4209 55.2791 32.0565 53.5051L33.1462 50.324L33.1916 53.5051C33.237 55.2791 33.464 56.7473 33.691 56.7473C33.9634 56.7473 34.145 54.9121 34.145 52.4039C34.145 47.2041 33.5548 47.0206 31.9203 51.731C31.2847 53.5051 30.649 54.9121 30.4674 54.9121C30.3312 54.9121 29.741 53.5662 29.1961 51.9145C28.1973 48.7946 27.6978 47.9382 27.153 48.6111Z" fill="#37411C"/>
<path d="M66.0619 49.0405C65.2446 49.4075 64.3819 50.0192 64.1095 50.3863C63.3831 51.3651 63.3831 54.6685 64.1095 55.8308C64.9268 57.1766 67.1061 56.9931 67.9234 55.4638C68.9676 53.3838 68.1958 51.6098 66.1073 51.1816L64.3365 50.8145L65.8348 50.3251C67.1515 49.8969 68.105 48.9793 67.6964 48.5511C67.6055 48.4287 66.8791 48.6734 66.0619 49.0405ZM67.4239 53.2003C67.7872 53.9344 67.7418 54.485 67.3331 55.1579C66.4705 56.5037 65.1538 56.3814 64.5636 54.852C63.5193 52.3439 66.2889 50.6922 67.4239 53.2003Z" fill="#37411C"/>
<path d="M128.445 48.5499C128.263 48.7946 128.127 50.7522 128.127 52.8933V56.7473H130.125C131.214 56.7473 132.44 56.5638 132.849 56.3803C133.666 55.952 133.848 53.3827 133.121 52.771C132.849 52.5263 132.894 51.9757 133.212 51.2416C133.621 50.3852 133.621 49.8346 133.303 49.4064C132.713 48.6111 128.944 47.9382 128.445 48.5499ZM132.44 50.6299C132.44 51.2416 131.895 51.6087 130.76 51.731C129.262 51.9145 129.035 51.731 129.035 50.6299C129.035 49.5287 129.262 49.3452 130.76 49.5287C131.895 49.6511 132.44 50.0181 132.44 50.6299ZM132.667 54.3003C132.667 55.3403 132.349 55.5238 130.851 55.5238C129.353 55.5238 129.035 55.3403 129.035 54.3003C129.035 53.2604 129.353 53.0769 130.851 53.0769C132.349 53.0769 132.667 53.2604 132.667 54.3003Z" fill="#37411C"/>
<path d="M35.5049 53.6884C35.5049 55.3401 35.7319 56.7472 35.9589 56.7472C36.2313 56.7472 36.4129 56.0742 36.4129 55.279C36.4129 53.9943 36.5945 53.8108 37.6842 53.872C38.5923 53.9943 38.9555 54.3613 39.0463 55.4013C39.3187 57.9095 39.9544 56.7472 39.9544 53.6884C39.9998 51.9755 39.8181 50.6297 39.5457 50.6297C39.3187 50.6297 39.1371 51.1803 39.1371 51.8532C39.1371 52.832 38.8193 53.0767 37.775 53.0767C36.7308 53.0767 36.4129 52.832 36.4129 51.8532C36.4129 51.1803 36.2313 50.6297 35.9589 50.6297C35.7319 50.6297 35.5049 51.9755 35.5049 53.6884Z" fill="#37411C"/>
<path d="M41.4973 51.3635C40.8163 52.2811 40.7709 55.0339 41.4973 56.0127C42.1329 56.8692 44.0853 56.9915 45.0387 56.1351C45.9468 55.401 45.3111 54.6669 44.3123 55.401C43.3134 56.1351 41.8605 55.6457 41.8605 54.5445C41.8605 53.9328 42.4962 53.6881 43.9491 53.6881C46.0376 53.6881 46.0376 53.6881 45.4019 52.2811C44.6301 50.7517 42.36 50.2011 41.4973 51.3635ZM44.4031 52.1587C45.2203 52.954 45.1749 53.0152 43.5858 53.0763C41.9059 53.0763 41.2703 52.2811 42.4508 51.6693C43.3134 51.1799 43.4496 51.1799 44.4031 52.1587Z" fill="#37411C"/>
<path d="M49.5801 53.6887C49.5801 55.3404 49.8071 56.7474 50.0341 56.7474C50.3065 56.7474 50.4881 56.0745 50.4881 55.2792C50.4881 53.9945 50.6697 53.811 51.7594 53.8722C52.6675 53.9945 53.0307 54.3616 53.1215 55.4015C53.3939 57.9709 54.1204 56.7474 54.1204 53.6887C54.1204 51.9758 53.9387 50.6299 53.6663 50.6299C53.4393 50.6299 53.2123 51.1805 53.2123 51.8534C53.2123 52.8322 52.8945 53.0769 51.8502 53.0769C50.806 53.0769 50.4881 52.8322 50.4881 51.8534C50.4881 51.1805 50.3065 50.6299 50.0341 50.6299C49.8071 50.6299 49.5801 51.9758 49.5801 53.6887Z" fill="#37411C"/>
<path d="M55.5725 51.3635C54.8915 52.2811 54.8461 55.0339 55.5725 56.0127C56.2081 56.8692 58.1605 56.9915 59.1139 56.1351C60.0674 55.3398 59.3409 54.728 58.2967 55.4621C57.207 56.2574 55.9357 55.768 55.9357 54.5445C55.9357 53.9328 56.526 53.6881 58.0243 53.6881C60.1128 53.6881 60.1128 53.6881 59.4771 52.2811C58.7053 50.7517 56.4352 50.2011 55.5725 51.3635ZM58.4783 52.1587C59.2955 52.954 59.2501 53.0152 57.661 53.0763C55.9811 53.0763 55.3455 52.2811 56.526 51.6693C57.3886 51.1799 57.5248 51.1799 58.4783 52.1587Z" fill="#37411C"/>
<path d="M69.468 52.1592C68.6507 54.6674 69.6042 56.7473 71.5565 56.7473C72.4192 56.7473 73.2818 56.4414 73.418 56.0744C73.8721 55.0956 73.3726 54.7286 72.4646 55.4015C71.9197 55.8297 71.3295 55.8297 70.8301 55.4627C69.4226 54.4227 69.922 53.6886 72.0559 53.6886C73.191 53.6886 74.0991 53.5051 74.0991 53.3215C74.0991 50.4464 70.376 49.4676 69.468 52.1592ZM72.737 52.1592C73.2364 52.9545 73.0548 53.0769 71.6019 53.0769C70.149 53.0769 69.9674 52.9545 70.4668 52.1592C70.7847 51.6698 71.2841 51.2416 71.6019 51.2416C71.9197 51.2416 72.4192 51.6698 72.737 52.1592Z" fill="#37411C"/>
<path d="M75.232 51.242C74.7326 52.3431 75.2774 52.5878 76.3217 51.7314C77.0481 51.1196 77.366 51.1196 77.7746 51.6702C78.2286 52.282 78.0924 52.5267 77.2298 52.9549L76.1401 53.5054L77.1843 53.9337C77.7292 54.1784 78.1832 54.6678 78.1832 54.9736C78.1832 55.9524 76.7303 56.3806 75.8677 55.6466C74.6872 54.6678 74.324 54.7289 75.005 55.8301C75.6407 56.87 78.4556 57.0536 78.8643 56.1359C79.0459 55.7689 79.0005 54.9736 78.8188 54.4231C78.6372 53.8725 78.501 52.8325 78.4556 52.1596C78.4102 51.242 78.047 50.8749 76.9573 50.7526C76.1855 50.6302 75.4136 50.8749 75.232 51.242Z" fill="#37411C"/>
<path d="M80.0004 55.033C80.0004 57.4188 80.182 59.1929 80.4544 59.1929C80.7268 59.1929 80.9084 58.5811 80.9084 57.7859C80.9084 56.5624 81.09 56.3788 82.2705 56.6235C83.9958 56.9294 84.9947 55.8895 84.9947 53.6872C84.9947 51.4237 84.132 50.6285 81.8619 50.7508L80.0004 50.812V55.033ZM83.5418 51.9743C84.9039 53.8095 83.3602 56.6847 81.6803 55.4612C80.3636 54.4213 80.9992 51.2402 82.4975 51.2402C82.7699 51.2402 83.224 51.5461 83.5418 51.9743Z" fill="#37411C"/>
<path d="M86.3571 51.5473C85.9939 52.0978 85.9485 52.4649 86.2663 52.4649C86.5387 52.4649 86.9019 52.159 87.0382 51.8532C87.4014 51.0579 88.9451 51.0579 89.3083 51.8532C89.5807 52.4649 89.3083 52.7096 87.129 53.3825C86.1301 53.6272 85.8577 54.0554 85.9939 55.0954C86.1301 56.2577 86.4025 56.4412 88.4456 56.5024L90.7612 56.6248L90.4434 54.3613C90.2618 53.0766 89.9893 51.7308 89.8077 51.3638C89.3537 50.3238 87.0382 50.4461 86.3571 51.5473ZM89.5353 54.3001C89.5353 55.0954 87.81 56.2577 87.2652 55.8295C86.5841 55.2177 86.7203 54.4225 87.6284 54.1166C88.9905 53.6272 89.5353 53.6884 89.5353 54.3001Z" fill="#37411C"/>
<path d="M92.031 51.2417C91.5316 52.3428 92.0764 52.5875 93.1207 51.7311C93.8471 51.1194 94.165 51.1194 94.5736 51.6699C95.0276 52.2817 94.8914 52.5264 94.0288 52.9546L92.9391 53.5052L93.9834 53.9334C94.5736 54.1781 94.9368 54.7286 94.846 55.0957C94.619 55.891 93.3931 55.9521 92.031 55.1569C91.2138 54.7286 91.2138 54.7898 91.7586 55.7074C92.4397 56.8697 95.2092 57.1144 95.6633 56.1357C95.8449 55.7686 95.7995 54.9733 95.6179 54.4228C95.4362 53.8722 95.3 52.8322 95.2546 52.1593C95.2092 51.2417 94.846 50.8747 93.7563 50.7523C92.9845 50.63 92.2126 50.8747 92.031 51.2417Z" fill="#37411C"/>
<path d="M97.2527 52.9545C97.2527 54.2392 97.0257 55.585 96.7079 56.0132C96.2992 56.5638 96.3446 56.7473 96.8895 56.7473C97.7521 56.7473 98.1607 55.5238 98.1607 53.0157C98.1607 51.5475 98.3424 51.2416 99.2958 51.2416C100.295 51.2416 100.431 51.4863 100.431 53.6274C100.431 54.9733 100.658 56.2579 100.885 56.4414C101.157 56.6861 101.339 55.6462 101.339 53.7498V50.6299H99.2958H97.2527V52.9545Z" fill="#37411C"/>
<path d="M102.701 53.6886C102.701 55.3403 102.882 56.7473 103.109 56.7473C103.336 56.7473 104.154 55.7073 104.926 54.4227L106.288 52.1592L106.333 54.4227C106.333 55.7073 106.56 56.7473 106.787 56.7473C107.059 56.7473 107.241 55.3403 107.241 53.6886C107.241 49.957 106.605 49.7734 104.88 52.8933L103.609 55.0956V52.8933C103.609 51.6087 103.427 50.6299 103.155 50.6299C102.928 50.6299 102.701 51.9757 102.701 53.6886Z" fill="#37411C"/>
<path d="M108.649 51.9761C108.603 53.7502 109.602 54.9125 111.1 54.729C111.6 54.6678 112.008 54.9125 112.008 55.3407C112.008 55.7078 112.145 56.2583 112.372 56.503C112.553 56.7477 112.689 55.5242 112.689 53.7502C112.689 51.7314 112.508 50.6915 112.235 50.9362C111.963 51.1809 111.827 51.7926 111.872 52.3432C111.963 53.0773 111.645 53.4443 110.828 53.5667C109.829 53.7502 109.511 53.4443 109.148 52.0373L108.694 50.3244L108.649 51.9761Z" fill="#37411C"/>
<path d="M114.052 53.6887C114.052 55.3404 114.279 56.7474 114.506 56.7474C114.778 56.7474 114.96 56.0745 114.96 55.218C114.96 53.8722 115.141 53.6887 116.231 53.8722C117.094 53.9945 117.502 54.4839 117.593 55.4015C117.866 57.9709 118.592 56.7474 118.592 53.6887C118.592 51.9758 118.41 50.6299 118.138 50.6299C117.911 50.6299 117.684 51.1805 117.684 51.8534C117.684 52.8322 117.366 53.0769 116.322 53.0769C115.278 53.0769 114.96 52.8322 114.96 51.8534C114.96 51.1805 114.778 50.6299 114.506 50.6299C114.279 50.6299 114.052 51.9758 114.052 53.6887Z" fill="#37411C"/>
<path d="M120.045 51.364C119.727 51.7922 119.5 52.8322 119.5 53.6886C119.5 55.7073 120.272 56.7473 121.816 56.7473C123.269 56.7473 124.494 55.3403 124.494 53.6886C124.494 51.1804 121.407 49.5287 120.045 51.364ZM123.042 51.9757C123.859 53.0768 123.677 54.7897 122.633 55.5238C121.452 56.3803 120.408 55.3403 120.408 53.3827C120.408 51.4251 121.997 50.5687 123.042 51.9757Z" fill="#37411C"/>
<path d="M135.164 51.2406C134.71 52.2806 135.3 52.8311 135.936 51.9747C136.707 50.9347 138.115 51.0571 138.115 52.1582C138.115 52.7088 137.706 53.0758 137.116 53.0758C135.618 53.0758 134.8 53.9323 135.027 55.2781C135.164 56.2569 135.618 56.4404 137.57 56.5016C139.295 56.5628 139.84 56.3792 139.522 55.8898C139.295 55.5228 139.023 54.2381 138.932 53.0758C138.796 51.1182 138.66 50.9347 137.116 50.7512C136.208 50.6288 135.345 50.8735 135.164 51.2406ZM138.296 54.544C137.933 55.7675 136.798 56.2569 135.936 55.584C135.254 55.0334 135.3 54.9111 136.299 54.3605C137.933 53.504 138.569 53.5652 138.296 54.544Z" fill="#37411C"/>
<path d="M140.385 53.6886V56.7473H143.79H147.195V53.6886C147.195 51.9757 147.014 50.6299 146.741 50.6299C146.514 50.6299 146.287 51.6698 146.287 52.9545C146.287 55.585 146.015 56.1967 145.107 55.7073C144.698 55.5238 144.471 54.4839 144.471 53.0157C144.471 51.731 144.29 50.6299 144.017 50.6299C143.79 50.6299 143.563 51.731 143.563 53.0157C143.563 55.6462 143.155 56.3803 142.02 55.7685C141.52 55.5238 141.293 54.6062 141.293 53.0157C141.293 51.731 141.111 50.6299 140.839 50.6299C140.612 50.6299 140.385 51.9757 140.385 53.6886Z" fill="#37411C"/>
<path d="M148.832 51.6087C147.288 53.6274 148.468 56.7473 150.784 56.7473C151.51 56.7473 152.328 56.3191 152.645 55.8297C153.281 54.8509 152.918 54.7286 151.51 55.4627C150.557 56.0132 149.013 55.2791 149.013 54.3003C149.013 53.9333 149.921 53.6886 151.056 53.6886C152.418 53.6886 153.1 53.4439 153.1 52.8933C153.1 50.691 150.148 49.7734 148.832 51.6087ZM151.737 52.1592C152.237 52.9545 152.055 53.0769 150.557 53.0769C148.922 53.0157 148.832 52.9545 149.649 52.1592C150.784 50.9969 151.056 50.9969 151.737 52.1592Z" fill="#37411C"/>
<path d="M157.503 50.9963C156.867 51.8528 157.185 52.5869 157.866 51.8528C158.592 51.0575 159.909 51.4246 159.909 52.4034C159.909 52.7092 159.546 53.1375 159.137 53.2598C158.456 53.5045 158.456 53.6268 159.364 53.9939C159.909 54.2386 160.363 54.6668 160.363 54.9727C160.363 55.9515 158.91 56.3797 158.047 55.6456C156.867 54.6668 156.504 54.728 157.185 55.8291C158.365 57.7867 161.952 56.2573 160.999 54.1774C160.772 53.7492 160.635 52.8316 160.59 52.1587C160.59 51.241 160.227 50.874 159.228 50.7516C158.456 50.6293 157.684 50.7516 157.503 50.9963Z" fill="#37411C"/>
<path d="M162.634 52.7095C162.634 53.8718 162.452 55.0342 162.18 55.2177C161.953 55.4012 161.726 56.2576 161.726 57.1141C161.726 57.9094 161.953 58.5823 162.18 58.5823C162.452 58.5823 162.634 58.1541 162.634 57.6647C162.634 56.9917 163.133 56.747 164.45 56.747C165.767 56.747 166.266 56.9917 166.266 57.6647C166.266 58.1541 166.493 58.5823 166.766 58.5823C167.129 58.5823 167.174 57.9094 166.993 56.6859C166.856 55.6459 166.72 53.8107 166.72 52.7095C166.72 50.6296 166.675 50.6296 164.677 50.6296C162.634 50.6296 162.634 50.6296 162.634 52.7095ZM165.721 53.4436C165.812 54.8506 165.63 55.4624 165.04 55.6459C163.633 56.1353 163.27 55.5847 163.451 53.3213C163.633 51.5472 163.814 51.1802 164.632 51.3637C165.313 51.486 165.63 52.0366 165.721 53.4436Z" fill="#37411C"/>
<path d="M168.172 51.364C167.854 51.7922 167.627 52.8322 167.627 53.6886C167.627 55.7073 168.399 56.7473 169.942 56.7473C171.395 56.7473 172.621 55.3403 172.621 53.6886C172.621 51.1804 169.534 49.5287 168.172 51.364ZM170.85 51.8534C171.94 52.6486 171.985 54.6674 170.896 55.4627C169.216 56.6861 167.718 53.8109 169.08 51.9757C169.761 51.0581 169.761 51.0581 170.85 51.8534Z" fill="#37411C"/>
<path d="M173.529 54.7283C173.529 56.8694 173.711 58.5823 173.983 58.5823C174.256 58.5823 174.437 58.0929 174.437 57.4811C174.437 56.5635 174.71 56.38 175.8 56.6247C177.525 56.9306 178.524 55.8906 178.524 53.6883C178.524 51.4249 177.661 50.6296 175.391 50.752L173.529 50.8131V54.7283ZM177.071 51.9754C178.433 53.8107 176.889 56.6859 175.209 55.4624C173.893 54.4224 174.528 51.2413 176.027 51.2413C176.299 51.2413 176.753 51.5472 177.071 51.9754Z" fill="#37411C"/>
<path d="M180.023 51.3651C179.16 52.8945 179.069 54.1791 179.705 55.4638C180.704 57.299 182.838 57.1767 183.791 55.2191C184.472 53.8121 184.472 53.5674 183.791 52.1604C182.974 50.5087 180.795 50.0193 180.023 51.3651ZM182.792 52.2216C183.7 53.3839 183.7 53.9956 182.838 55.1579C181.884 56.3814 179.932 55.3415 179.887 53.5674C179.887 53.0168 181.249 51.2428 181.703 51.2428C181.93 51.2428 182.429 51.671 182.792 52.2216Z" fill="#37411C"/>
<path d="M185.335 53.6274V56.7473H187.106C189.058 56.7473 189.694 56.0744 189.149 54.4227C188.967 53.8721 188.831 52.8322 188.785 52.1592C188.74 51.1804 188.377 50.8746 187.06 50.7522L185.335 50.5687V53.6274ZM187.787 51.6087C188.785 52.1592 188.241 53.0769 186.879 53.0769C185.834 53.0769 185.471 52.4651 186.107 51.6698C186.47 51.1193 186.879 51.1193 187.787 51.6087ZM187.787 54.0556C188.967 54.6674 188.604 55.5238 187.151 55.5238C185.834 55.5238 185.426 54.9733 186.107 54.1168C186.47 53.5662 186.879 53.5662 187.787 54.0556Z" fill="#37411C"/>
<path d="M190.329 53.6886V56.7473H192.1C194.006 56.7473 195.051 55.6462 194.597 54.0556C194.415 53.4439 193.779 53.0768 192.781 53.0768C191.555 53.0768 191.237 52.8322 191.237 51.8534C191.237 51.1804 191.055 50.6299 190.783 50.6299C190.556 50.6299 190.329 51.9757 190.329 53.6886ZM193.961 54.9733C193.961 55.2791 193.371 55.5238 192.599 55.5238C191.146 55.5238 190.737 54.545 192.054 54.178C193.008 53.8721 193.961 54.2392 193.961 54.9733Z" fill="#37411C"/>
<path d="M196.322 51.3642C196.004 51.7924 195.777 52.8324 195.777 53.6888C195.777 54.5452 196.004 55.5852 196.322 56.0134C197.094 57.0534 199.182 56.931 199.909 55.7687C200.454 54.8511 200.408 54.7899 199.409 55.2182C198.774 55.4629 198.184 55.6464 198.047 55.6464C197.048 55.6464 196.685 55.4017 196.685 54.6064C196.685 53.9335 197.185 53.6888 198.501 53.6888C199.682 53.6888 200.317 53.3829 200.317 52.8935C200.317 51.6089 199.319 50.6301 198.047 50.6301C197.412 50.6301 196.64 50.9359 196.322 51.3642ZM198.683 51.6089C199.863 52.2206 199.5 53.0771 198.047 53.0771C196.685 53.0771 196.186 52.2206 197.276 51.67C197.548 51.4865 197.866 51.303 197.911 51.303C197.957 51.2418 198.274 51.4253 198.683 51.6089Z" fill="#37411C"/>
</svg>
