<svg width="376" height="372" viewBox="0 0 376 372" fill="none" xmlns="http://www.w3.org/2000/svg">
<path d="M86.4731 0.00390041C87.1878 0.00575717 87.9026 0.00761392 88.639 0.00952694C102.018 0.0615949 115.161 1.0812 128.441 2.61695C134.849 3.35439 141.268 3.99911 147.685 4.66001C149.812 4.88065 151.94 5.10576 154.067 5.33224C155.395 5.47219 156.722 5.61214 158.05 5.75208C158.631 5.81481 159.212 5.87753 159.81 5.94217C169.615 6.96758 179.31 7.24886 189.16 7.20918C191.396 7.20028 193.632 7.19593 195.868 7.19263C201.422 7.18356 206.976 7.16703 212.53 7.15055C217.233 7.13687 221.935 7.12622 226.638 7.11932C228.81 7.11497 230.982 7.1064 233.154 7.09759C245.482 7.06642 257.879 7.2298 270.132 8.69979C270.871 8.78742 271.609 8.87506 272.371 8.96535C294.808 11.797 315.441 18.5233 332.889 33.2025C333.465 33.6822 334.041 34.162 334.635 34.6563C357.618 54.4313 366.278 85.114 369.44 114.079C369.542 115.002 369.542 115.002 369.647 115.944C371.463 133.042 371.454 150.347 371.564 167.523C371.594 172.126 371.634 176.729 371.681 181.332C371.686 181.807 371.69 182.281 371.695 182.77C371.859 198.67 372.734 214.444 373.965 230.295C375.152 245.62 375.994 260.838 375.991 276.216C375.994 277 375.997 277.784 376 278.591C376.04 302.691 372.688 329.893 355.647 348.482C354.732 349.487 354.732 349.487 353.799 350.511C344.106 360.807 331.449 367.955 317.092 368.578C294.636 369.156 275.258 361.405 254.96 352.594C221.298 337.601 221.298 337.601 185.307 330.662C184.58 330.613 183.854 330.565 183.106 330.515C170.923 330.128 158.859 333.062 147.377 336.83C146.479 337.124 146.479 337.124 145.563 337.423C132.861 341.67 120.836 347.488 108.715 353.119C68.3466 371.861 68.3466 371.861 47.9396 371.957C46.8295 371.978 46.8295 371.978 45.697 372C33.9882 372.056 23.035 367.365 14.5936 359.34C4.23987 348.873 0.911984 336.447 0.915703 322.06C1.23715 299.035 11.1918 277.062 18.9145 255.678C36.8459 206.009 32.862 171.095 15.919 121.795C-3.85017 64.2576 -3.85017 64.2576 8.48487 37.6763C11.0313 32.7362 13.9993 28.421 17.7249 24.2924C18.553 23.3727 18.553 23.3727 19.3978 22.4344C36.9229 4.01087 62.0537 -0.146773 86.4731 0.00390041Z" fill="black"/>
</svg>
