<svg width="376" height="372" viewBox="0 0 376 372" fill="none" xmlns="http://www.w3.org/2000/svg">
<path d="M298.371 0.093743C310.58 -0.0875215 322.33 0.319996 334.174 3.07627C334.572 3.1679 334.969 3.25953 335.379 3.35394C344.866 5.59455 352.36 10.7488 360.316 16.4976C361.146 17.0978 361.977 17.6977 362.815 18.2899C369.657 23.5004 374.955 32.5284 375.772 40.447C375.822 41.6274 375.839 42.8043 375.843 43.9855C375.849 44.4309 375.854 44.8764 375.86 45.3353C375.877 46.8062 375.884 48.2771 375.891 49.7481C375.894 50.2601 375.897 50.7721 375.9 51.2996C375.918 54.0289 375.928 56.7583 375.933 59.4877C375.938 61.698 375.953 63.908 375.98 66.1183C376.14 79.8957 375.385 93.1531 372.873 106.762C372.247 110.238 371.858 113.719 371.51 117.223C371.271 119.593 370.952 121.919 370.484 124.264C369.787 127.98 369.812 131.675 369.826 135.428C369.825 136.199 369.824 136.97 369.823 137.741C369.821 139.352 369.823 140.963 369.829 142.575C369.835 144.595 369.831 146.615 369.825 148.635C369.803 156.652 369.963 164.584 370.72 172.579C371.235 178.279 371.198 183.944 371.05 189.657C371.007 191.388 370.979 193.119 370.952 194.85C370.57 214.264 366.019 232.053 355.267 249.118C354.806 249.852 354.349 250.588 353.895 251.326C351.542 255.136 349.075 258.883 346.57 262.618C346.357 262.935 346.145 263.252 345.926 263.578C339.147 273.675 331.777 283.349 323.52 292.571C322.747 293.444 321.988 294.326 321.232 295.21C320.972 295.511 320.713 295.812 320.446 296.122C319.947 296.703 319.45 297.285 318.956 297.869C318.372 298.543 317.752 299.193 317.125 299.837C316.84 300.086 317.125 299.837 316.84 300.086C316.703 300.363 316.129 300.794 315.988 301.08C310.624 309.612 298.603 317.403 289.689 323.068C288.62 323.755 287.571 324.462 286.523 325.173C281.694 328.431 276.723 331.368 271.499 334.118C270.664 334.559 269.836 335.011 269.01 335.465C264.752 337.782 260.264 339.697 255.748 341.593C255.318 341.775 254.888 341.956 254.445 342.144C232.946 351.165 209.865 358.161 186.983 363.962C186.31 364.133 185.637 364.305 184.943 364.482C172.37 367.634 159.605 369.603 146.675 371.266C145.602 371.405 144.53 371.554 143.459 371.704C139.714 372.099 135.919 371.986 132.153 371.981C131.3 371.981 130.447 371.982 129.594 371.983C127.814 371.983 126.034 371.982 124.253 371.98C121.976 371.977 119.698 371.979 117.42 371.982C115.662 371.983 113.903 371.983 112.144 371.982C111.305 371.981 110.465 371.982 109.625 371.983C108.451 371.984 107.278 371.982 106.104 371.979C105.438 371.979 104.771 371.979 104.085 371.978C102.47 371.921 101.035 371.738 99.4649 371.418C98.5045 371.261 97.544 371.104 96.5834 370.948C78.2436 367.87 58.7494 361.115 47.1811 347.558C42.9933 341.574 39.3246 334.716 38.6566 327.674C38.5958 327.214 38.535 326.753 38.4723 326.278C37.4081 316.982 38.061 307.606 39.2249 298.346C39.2858 297.861 39.3467 297.376 39.4094 296.876C40.4956 288.434 42.0512 280.072 43.7735 271.713C48.9885 246.02 49.7108 222.95 36.9517 198.929C36.7925 198.625 36.6334 198.322 36.4694 198.009C33.149 191.734 28.9861 185.891 24.8833 179.992C-2.61589 140.394 -2.61589 140.394 2.85352 117.903C4.68599 111.548 7.92236 105.57 12.5027 100.412C13.071 99.1689 13.071 99.1689 14.2196 98.0199C15.1408 97.1694 16.0921 96.3435 17.0611 95.5345C17.8171 94.8425 17.8171 94.8425 18.5884 94.1365C19.9026 93.0491 20.1868 92.8005 21.0393 92.0548C21.0393 92.3929 21.0393 91.7268 21.0393 92.0548C21.4536 91.6924 21.6131 91.6972 21.8796 91.4641C22.4479 90.967 22.448 90.9669 22.7321 90.7184C23.5845 89.9728 24.0594 89.5534 25.0173 89.0724C26.1684 88.197 27.2858 87.317 28.3916 86.4005C31.4937 83.8518 34.5612 81.4127 38.1948 79.4413C38.7355 79.1459 39.2761 78.8505 39.8331 78.5462C40.3826 78.2469 40.932 77.9477 41.4981 77.6394C42.5524 77.0498 43.6061 76.4596 44.6593 75.8685C45.1823 75.5795 45.7054 75.2905 46.2443 74.9928C47.1698 74.4805 48.0914 73.9626 49.0059 73.4355C55.4743 69.8323 62.8635 67.3181 69.9709 64.8471C71.4287 64.2904 72.8104 63.6764 74.2199 63.0335C77.4409 61.6125 80.76 60.6373 84.1918 59.6821C85.3657 59.3501 86.5393 59.0174 87.7126 58.684C88.2683 58.5264 88.824 58.3688 89.3966 58.2065C91.0877 57.7129 92.7506 57.1709 94.4151 56.6132C96.3251 55.992 98.2663 55.4603 100.211 54.9287C100.809 54.761 100.809 54.761 101.42 54.5899C103.104 54.1278 104.092 53.6585 105.704 53.1883C106.557 52.9398 106.557 52.9398 106.853 52.785C108.059 52.4185 108.059 52.4185 109.628 52.0782C112.871 51.3485 116.071 50.5309 119.273 49.6782C119.834 49.5294 120.395 49.3806 120.972 49.2272C122.147 48.9152 123.321 48.6027 124.495 48.2899C126.283 47.8139 128.071 47.3402 129.859 46.8666C131.007 46.5612 132.155 46.2557 133.303 45.95C134.096 45.7403 134.096 45.7403 134.906 45.5263C137.199 44.9134 139.466 44.2799 141.707 43.5328C143.385 42.978 145.005 42.5158 146.738 42.1248C155.993 39.9598 165.037 37.3454 174.09 34.6102C174.692 34.4299 175.294 34.2495 175.914 34.0637C182.193 32.1783 188.328 30.2286 194.301 27.6871C196.739 26.6562 199.227 25.7852 201.759 24.9481C202.295 24.7706 202.83 24.5931 203.382 24.4102C205.695 23.6486 208.012 22.8957 210.328 22.1423C212.904 21.3016 215.476 20.4557 218.027 19.5578C218.491 19.3953 218.954 19.2328 219.432 19.0653C220.321 18.7533 221.209 18.4407 222.096 18.1252C229.179 15.6133 236.376 13.5002 243.661 11.4823C245.517 10.9679 247.372 10.4486 249.226 9.92869C258.273 7.40171 267.333 4.9516 276.633 3.23161C277.186 3.12864 277.738 3.02568 278.308 2.91959C285.035 1.68812 291.47 -0.086722 298.371 0.093743C298.371 0.431762 298.371 -0.234335 298.371 0.093743Z" fill="black"/>
</svg>
