<svg width="376" height="372" viewBox="0 0 376 372" fill="none" xmlns="http://www.w3.org/2000/svg">
<path d="M105.996 0.0695711C106.498 0.0670927 107 0.0646143 107.517 0.0620608C109.168 0.0548167 110.818 0.0513708 112.469 0.0486094C113.043 0.0471981 113.617 0.0457867 114.209 0.0443325C117.264 0.0368603 120.32 0.0322496 123.376 0.0300852C125.856 0.0279212 128.336 0.0210833 130.816 0.00961096C145.932 -0.0588548 160.908 0.216513 175.969 1.55011C177.026 1.64288 178.083 1.73202 179.14 1.81938C183.254 2.16012 187.362 2.54022 191.468 2.95789C192.074 3.01916 192.68 3.08042 193.304 3.14353C212.208 5.08385 231.211 7.81653 249.493 13.1287C250.114 13.3089 250.735 13.489 251.375 13.6747C265.514 17.8284 279.368 22.7824 292.46 29.5926C293.477 30.1201 294.499 30.638 295.522 31.1557C300.374 33.6389 304.949 36.432 309.479 39.4595C310.303 40.0069 311.135 40.542 311.969 41.075C315.086 43.0832 318.038 45.2754 320.97 47.5409C321.334 47.821 321.697 48.1012 322.072 48.3898C327.236 52.4265 331.936 56.9633 336.576 61.5804C336.988 61.9902 336.988 61.9902 337.408 62.4083C341.668 66.6641 345.541 70.9934 348.874 76.0254C349.2 76.4951 349.526 76.9649 349.861 77.4489C358.195 89.8887 361.73 104.417 364.356 118.955C364.446 119.453 364.536 119.951 364.629 120.464C365.21 123.802 365.611 127.122 365.885 130.498C365.943 131.166 365.943 131.166 366.003 131.848C366.641 139.413 366.931 146.991 367.137 154.578C367.192 156.573 367.251 158.567 367.31 160.561C367.418 164.245 367.525 167.929 367.625 171.613C368.136 190.333 369.854 208.585 372.469 227.122C372.851 229.829 373.228 232.536 373.605 235.243C373.898 237.343 374.191 239.443 374.487 241.543C374.777 243.609 375.061 245.676 375.342 247.743C375.402 248.167 375.462 248.59 375.524 249.026C375.966 252.448 375.932 255.884 375.943 259.33C375.945 259.835 375.945 259.835 375.948 260.35C375.955 262.134 375.96 263.919 375.962 265.703C375.964 267.157 375.971 268.611 375.982 270.065C376.044 278.04 376.038 285.832 374.344 293.668C374.267 294.028 374.19 294.388 374.11 294.759C371.287 307.828 364.865 318.699 355.897 328.486C355.629 328.78 355.361 329.075 355.085 329.378C346.73 338.274 335.564 344.864 324.403 349.576C323.954 349.77 323.504 349.963 323.041 350.162C309.682 355.856 295.692 358.592 281.455 361.057C280.938 361.147 280.421 361.238 279.889 361.33C263.909 364.046 247.517 364.401 231.357 365.089C214.805 365.796 198.256 366.541 181.729 367.723C180.742 367.793 179.755 367.863 178.767 367.932C171.996 368.412 165.241 368.971 158.488 369.664C143.018 371.231 127.701 371.982 112.151 371.948C109.752 371.943 107.353 371.954 104.954 371.978C78.1496 372.252 45.3587 370.177 24.7608 350.575C23.8935 349.89 23.0198 349.214 22.1389 348.547C19.9902 346.848 18.2017 344.959 16.4212 342.882C15.5043 341.851 14.5752 340.924 13.5769 339.977C11.6062 338.019 10.1898 335.86 8.77988 333.478C8.52173 333.042 8.26358 332.607 7.99761 332.159C6.34796 329.292 4.94077 326.406 3.78584 323.307C3.65902 322.969 3.53219 322.631 3.40153 322.283C2.98332 321.074 2.62963 319.86 2.28763 318.627C2.11385 318.008 1.94007 317.389 1.76103 316.751C0.11249 310.439 -0.0470276 304.282 0.00909409 297.786C0.0115535 297.246 0.0140128 296.706 0.0165467 296.15C0.067074 287.975 0.617001 280.234 2.35542 272.225C2.85659 269.915 3.29818 267.593 3.74292 265.271C5.33004 257.047 7.02418 248.849 8.8345 240.671C8.96707 240.071 9.09965 239.471 9.23624 238.852C9.88228 235.931 10.534 233.012 11.1961 230.095C13.8824 218.128 15.7756 206.061 16.2168 193.797C16.253 192.819 16.2943 191.842 16.3407 190.864C17.2088 171.256 11.7235 151.637 7.34019 132.673C7.21844 132.145 7.09668 131.617 6.97124 131.074C6.38195 128.523 5.78887 125.973 5.18712 123.424C3.63749 116.815 2.31795 110.191 1.28882 103.48C1.22967 103.096 1.17052 102.712 1.10957 102.316C0.166192 95.9244 0.135898 89.5346 0.159793 83.0835C0.165177 81.3544 0.159799 79.6255 0.153453 77.8964C0.14538 67.0578 0.14538 67.0578 1.28882 62.0484C1.39214 61.5861 1.49547 61.1238 1.60192 60.6475C4.02125 50.6879 8.54162 42.3573 15.7715 35.0926C16.3594 34.4107 16.9424 33.7246 17.5195 33.0335C26.7143 22.5751 39.7689 15.5668 52.5884 10.5792C53.6979 10.1447 54.7984 9.69194 55.8994 9.23665C71.1399 3.10104 89.5824 0.0894737 105.996 0.0695711Z" fill="black"/>
</svg>
