<svg width="77" height="77" viewBox="0 0 77 77" fill="none" xmlns="http://www.w3.org/2000/svg">
<path d="M53.3514 44.5671L54.8144 43.1137L51.4167 39.7L49.9602 41.1534L53.3514 44.5671ZM59.7199 42.5041L65.851 45.8376L68.145 41.609L62.0171 38.2787L59.7199 42.5041ZM67.0285 52.4596L62.4727 56.9929L65.8639 60.4034L70.4197 55.8732L67.0285 52.4596ZM59.6942 58.4495C55.0422 58.8858 43.0109 58.4976 29.9787 45.5424L26.5842 48.9528C40.8036 63.092 54.3395 63.785 60.1434 63.2428L59.6942 58.4495ZM29.9787 45.5424C17.5592 33.1903 15.4994 22.8049 15.2428 18.2972L10.4367 18.5699C10.7575 24.2423 13.3082 35.7538 26.5842 48.9528L29.9787 45.5424ZM34.3901 25.7149L35.3109 24.7973L31.9229 21.3868L31.0021 22.3012L34.3901 25.7149ZM36.0424 13.135L31.9999 7.73218L28.1467 10.6197L32.1892 16.0193L36.0424 13.135ZM18.3934 6.55472L13.3563 11.5597L16.7507 14.9734L21.7846 9.96839L18.3934 6.55472ZM32.6961 24.0081C30.9957 22.3012 30.9957 22.3012 30.9957 22.3076H30.9893L30.9797 22.3205C30.8272 22.4742 30.6907 22.643 30.5722 22.8242C30.3989 23.0808 30.2097 23.4177 30.0492 23.8444C29.6587 24.9459 29.5614 26.1301 29.7669 27.2806C30.1968 30.0558 32.109 33.7229 37.0049 38.5931L40.3993 35.1795C35.8146 30.6236 34.7238 27.8516 34.5217 26.5426C34.4254 25.9202 34.5249 25.6122 34.5537 25.5416C34.573 25.4989 34.573 25.4924 34.5537 25.5224C34.5251 25.5667 34.4929 25.6085 34.4575 25.6475L34.4254 25.6796L34.3933 25.7085L32.6961 24.0081ZM37.0049 38.5931C41.904 43.4634 45.5904 45.3627 48.3688 45.7862C49.7901 46.0044 50.9355 45.8311 51.8049 45.5071C52.292 45.329 52.747 45.0733 53.1524 44.7499L53.3129 44.6056L53.3353 44.5863L53.3449 44.5767L53.3482 44.5703C53.3482 44.5703 53.3514 44.5671 51.6542 42.8602C49.9537 41.1534 49.9634 41.1502 49.9634 41.1502L49.9698 41.1438L49.9762 41.1373L49.9954 41.1213L50.0275 41.0892L50.1494 40.993C50.1794 40.9737 50.1719 40.9759 50.127 40.9994C50.0468 41.0283 49.7324 41.1277 49.1003 41.0315C47.7721 40.8261 44.9808 39.7353 40.3993 35.1795L37.0049 38.5931ZM31.9999 7.72897C28.7274 3.36564 22.2979 2.67264 18.3934 6.55472L21.7846 9.96839C23.4914 8.27118 26.5201 8.44764 28.1467 10.6197L31.9999 7.72897ZM15.246 18.3004C15.1818 17.1903 15.6919 16.0289 16.7507 14.9766L13.3531 11.5629C11.6302 13.2762 10.2731 15.7017 10.4367 18.5699L15.246 18.3004ZM62.4727 56.9929C61.5936 57.872 60.6439 58.3661 59.6974 58.4527L60.1434 63.2428C62.5015 63.0214 64.4297 61.8343 65.8671 60.4066L62.4727 56.9929ZM35.3109 24.7973C38.4711 21.6563 38.7053 16.6931 36.0456 13.1382L32.1924 16.0225C33.4854 17.7518 33.2929 20.0201 31.9197 21.3901L35.3109 24.7973ZM65.8542 45.8408C68.4754 47.2653 68.8829 50.6212 67.0317 52.4628L70.4261 55.8732C74.7253 51.5965 73.4002 44.4644 68.1482 41.6122L65.8542 45.8408ZM54.8144 43.1169C56.0464 41.8913 58.0291 41.5897 59.7231 42.5073L62.0203 38.2819C58.5424 36.389 54.2304 36.912 51.4199 39.7032L54.8144 43.1169Z" fill="#55642B"/>
</svg>
