<svg width="431" height="523" viewBox="0 0 431 523" fill="none" xmlns="http://www.w3.org/2000/svg">
<path fill-rule="evenodd" clip-rule="evenodd" d="M252.108 9.11435C205.978 27.9768 201.918 100.273 162.128 131.555C128.872 157.7 68.5771 133.998 46.1389 171.042C24.0438 207.52 67.7651 255.294 61.1996 298.182C52.7089 353.646 -15.2671 399.217 3.15081 451.857C20.3513 501.017 88.5236 500.462 136.26 512.712C174.472 522.517 214.5 527.927 252.108 515.742C285.419 504.95 303.857 468.404 333.455 448.823C361.86 430.031 404.022 433.135 422.232 403.195C440.396 373.328 424.633 333.805 425.075 298.182C425.523 262.025 429.248 227.404 424.854 191.55C418.34 138.383 428.766 74.7995 393.085 37.117C358.492 0.582901 297.525 -9.45643 252.108 9.11435Z" fill="white"/>
</svg>
