<svg width="64" height="64" viewBox="0 0 64 64" fill="none" xmlns="http://www.w3.org/2000/svg">
<g clip-path="url(#clip0_453_1682)">
<path d="M32.0249 64.0499C49.7118 64.0499 64.0499 49.7118 64.0499 32.0249C64.0499 14.3381 49.7118 0 32.0249 0C14.3381 0 0 14.3381 0 32.0249C0 49.7118 14.3381 64.0499 32.0249 64.0499Z" fill="url(#paint0_linear_453_1682)"/>
<path fill-rule="evenodd" clip-rule="evenodd" d="M14.4664 31.6758C23.7945 27.5854 30.0299 24.9416 33.1725 23.6446C42.0517 19.9532 43.8974 19.3048 45.0946 19.2549C45.344 19.2549 45.9426 19.3048 46.3417 19.6041C46.641 19.8535 46.7407 20.2027 46.7906 20.4521C46.8405 20.7015 46.8904 21.2502 46.8405 21.6992C46.3417 26.7373 44.2965 39.0585 43.199 44.6953C42.7501 47.0896 41.8522 47.8878 41.0042 47.9875C39.1585 48.1372 37.7119 46.7405 35.9161 45.5932C33.1226 43.7475 31.5264 42.6002 28.7828 40.8044C25.6402 38.7093 27.6854 37.562 29.4812 35.7163C29.9301 35.2175 38.1608 27.7849 38.3105 27.0865C38.3105 26.9868 38.3604 26.6875 38.1608 26.5378C37.9613 26.3882 37.7119 26.438 37.5124 26.4879C37.2131 26.5378 32.7236 29.5308 23.994 35.417C22.6971 36.3149 21.5498 36.714 20.5022 36.714C19.3549 36.714 17.1601 36.0655 15.5139 35.5168C13.5186 34.8683 11.9223 34.5191 12.072 33.4217C12.1718 32.873 12.9699 32.2744 14.4664 31.6758Z" fill="white"/>
</g>
<defs>
<linearGradient id="paint0_linear_453_1682" x1="0" y1="32.0017" x2="64.0035" y2="32.0017" gradientUnits="userSpaceOnUse">
<stop stop-color="#2AABEE"/>
<stop offset="1" stop-color="#229ED9"/>
</linearGradient>
<clipPath id="clip0_453_1682">
<rect width="64" height="64" fill="white"/>
</clipPath>
</defs>
</svg>
