<svg width="40" height="40" viewBox="0 0 40 40" fill="none" xmlns="http://www.w3.org/2000/svg">
<g clip-path="url(#clip0_607_982)">
<path d="M20.0005 40.001C31.0465 40.001 40.001 31.0465 40.001 20.0005C40.001 8.95453 31.0465 0 20.0005 0C8.95453 0 0 8.95453 0 20.0005C0 31.0465 8.95453 40.001 20.0005 40.001Z" fill="white"/>
<path d="M17.2172 16.6295V15.5379C16.843 15.4867 16.4627 15.4546 16.0744 15.4546C11.3989 15.4546 7.59521 19.2582 7.59521 23.9338C7.59521 26.8023 9.02898 29.3408 11.2153 30.8759C9.80356 29.3608 8.93768 27.3311 8.93768 25.1027C8.93768 20.4943 12.634 16.7358 17.2172 16.6285V16.6295Z" fill="#25F4EE"/>
<path d="M17.4168 28.9763C19.5027 28.9763 21.2043 27.3168 21.2816 25.2499L21.2886 6.78754L24.6618 6.78754C24.5916 6.40828 24.5535 6.01798 24.5535 5.61865L19.9462 5.61865L19.9391 24.081C19.8619 26.1489 18.1602 27.8074 16.0743 27.8074C15.4261 27.8074 14.8151 27.6449 14.2783 27.363C14.9827 28.3382 16.1255 28.9773 17.4178 28.9773L17.4168 28.9763Z" fill="#25F4EE"/>
<path d="M30.9628 13.0536V12.0272C29.6765 12.0272 28.4775 11.6449 27.4722 10.9897C28.3671 12.0172 29.5832 12.7586 30.9628 13.0536Z" fill="#25F4EE"/>
<path d="M27.4725 10.9886C26.4922 9.86285 25.8962 8.39296 25.8962 6.78662H24.6621C24.9872 8.54146 26.0287 10.0475 27.4725 10.9886Z" fill="#FE2C55"/>
<path d="M16.0745 20.0615C13.9394 20.0615 12.2017 21.7983 12.2017 23.9344C12.2017 25.4213 13.0455 26.7136 14.2776 27.3618C13.818 26.7256 13.5441 25.946 13.5441 25.1032C13.5441 22.9681 15.2819 21.2304 17.417 21.2304C17.8153 21.2304 18.1976 21.2966 18.5598 21.409V16.7063C18.1856 16.6552 17.8053 16.623 17.417 16.623C17.3498 16.623 17.2836 16.6271 17.2163 16.6281V20.2401C16.8551 20.1267 16.4719 20.0615 16.0735 20.0615H16.0745Z" fill="#FE2C55"/>
<path d="M30.963 13.0532V16.6341C28.574 16.6341 26.3607 15.8696 24.5537 14.5733V23.9354C24.5537 28.611 20.75 32.4146 16.0745 32.4146C14.2675 32.4146 12.5919 31.8447 11.2153 30.8775C12.7645 32.54 14.9708 33.5835 17.418 33.5835C22.0935 33.5835 25.8971 29.7798 25.8971 25.1043V15.7422C27.7042 17.0395 29.9175 17.803 32.3065 17.803V13.1957C31.8459 13.1957 31.3964 13.1455 30.964 13.0532H30.963Z" fill="#FE2C55"/>
<path d="M24.5534 23.9346L24.5534 14.5725C26.3604 15.8698 28.5738 16.6334 30.9627 16.6334V13.0525C29.5831 12.7575 28.3671 12.016 27.4721 10.9886C26.0283 10.0475 24.9869 8.54146 24.6618 6.78662L21.2886 6.78662L21.2815 25.249C21.2043 27.3169 19.5026 28.9754 17.4167 28.9754C16.1244 28.9754 14.9816 28.3373 14.2773 27.361C13.0442 26.7119 12.2014 25.4206 12.2014 23.9336C12.2014 21.7985 13.9391 20.0608 16.0742 20.0608C16.4726 20.0608 16.8548 20.127 17.217 20.2394V16.6273C12.6338 16.7347 8.9375 20.4932 8.9375 25.1015C8.9375 27.3309 9.80338 29.3597 11.2151 30.8747C12.5927 31.8419 14.2672 32.4118 16.0742 32.4118C20.7498 32.4118 24.5534 28.6082 24.5534 23.9326V23.9346Z" fill="black"/>
</g>
<defs>
<clipPath id="clip0_607_982">
<rect width="40" height="40" fill="white"/>
</clipPath>
</defs>
</svg>
