<svg width="467" height="498" viewBox="0 0 467 498" fill="none" xmlns="http://www.w3.org/2000/svg">
<path d="M14.7136 104.061C22.1552 62.6563 60.0547 33.8399 101.942 37.7382L216.194 48.3711C228.161 49.4849 240.227 47.9214 251.515 43.794L357.459 5.05743C418.172 -17.1415 479.149 37.2291 464.026 100.08L432.832 229.728C431.828 233.9 430.495 237.985 428.844 241.946L368.487 386.737C351.802 426.761 316.907 456.335 274.689 466.231L152.606 494.848C101.779 506.762 53.12 468.191 53.12 415.986V331.414C53.12 317.779 49.6782 304.365 43.1135 292.415L10.0066 232.147C1.07856 215.894 -2.00268 197.071 1.27749 178.82L14.7136 104.061Z" fill="white"/>
</svg>
