<svg width="65" height="64" viewBox="0 0 65 64" fill="none" xmlns="http://www.w3.org/2000/svg">
<path fill-rule="evenodd" clip-rule="evenodd" d="M54.7147 9.30013C48.6949 3.30584 40.6885 0.00304125 32.1579 0C14.5797 0 0.273704 14.2254 0.267587 31.7111C0.264529 37.3008 1.73397 42.7568 4.52453 47.5651L0 64L16.9054 59.5902C21.5629 62.1175 26.8076 63.448 32.1442 63.4496H32.1579C49.733 63.4496 64.0407 49.2225 64.0467 31.7369C64.0497 23.2626 60.7362 15.296 54.7147 9.30165V9.30013ZM32.1579 58.0939H32.1472C27.3917 58.0925 22.7266 56.8211 18.6563 54.4201L17.6883 53.8484L7.65607 56.4653L10.3335 46.7378L9.70349 45.7403C7.05055 41.5435 5.64839 36.6926 5.65145 31.7127C5.65757 17.18 17.5476 5.35563 32.1687 5.35563C39.2482 5.35868 45.9028 8.10341 50.9073 13.0865C55.9121 18.0681 58.6659 24.692 58.6629 31.7339C58.6566 46.2681 46.7667 58.0925 32.1579 58.0925V58.0939ZM46.6963 38.3532C45.8996 37.9563 41.9823 36.0403 41.2512 35.7757C40.5204 35.5111 39.9899 35.3789 39.4592 36.1726C38.9287 36.9664 37.4011 38.7516 36.9363 39.2792C36.4714 39.8084 36.0065 39.8739 35.2099 39.4768C34.4134 39.08 31.846 38.2437 28.8016 35.5445C26.4331 33.443 24.8336 30.8489 24.3689 30.0551C23.904 29.2614 24.32 28.8325 24.7174 28.4387C25.0752 28.0829 25.5141 27.5127 25.9131 27.0504C26.3123 26.5881 26.4438 26.2567 26.7098 25.7289C26.9759 25.1997 26.8429 24.7376 26.6441 24.3406C26.4452 23.9437 24.8521 20.0433 24.1869 18.4573C23.54 16.9124 22.8826 17.1222 22.3948 17.0964C21.9299 17.0736 21.3994 17.069 20.8673 17.069C20.3352 17.069 19.4727 17.2667 18.7418 18.0605C18.011 18.8541 15.9528 20.7717 15.9528 24.6705C15.9528 28.5694 18.8077 32.3392 19.2067 32.8683C19.6058 33.3975 24.8259 41.4005 32.8184 44.8341C34.7192 45.6506 36.2038 46.1388 37.3613 46.5037C39.2697 47.1074 41.0066 47.0223 42.3797 46.8185C43.9104 46.5904 47.0939 44.901 47.7575 43.0504C48.4211 41.1997 48.4211 39.6122 48.2224 39.2822C48.0236 38.9523 47.4915 38.753 46.6949 38.3562L46.6963 38.3532Z" fill="#25D366"/>
</svg>
