<svg width="50" height="40" viewBox="0 0 50 40" fill="none" xmlns="http://www.w3.org/2000/svg">
<path d="M48.3322 6.24613C47.7645 3.78742 46.092 1.85129 43.968 1.19419C40.1184 0 24.6819 0 24.6819 0C24.6819 0 9.24541 0 5.39577 1.19419C3.27192 1.85129 1.59915 3.78742 1.03151 6.24613C0 10.7024 0 20 0 20C0 20 0 29.2975 1.03151 33.7542C1.59915 36.2126 3.27192 38.1487 5.39577 38.8061C9.24541 40 24.6819 40 24.6819 40C24.6819 40 40.1184 40 43.968 38.8061C46.092 38.1487 47.7645 36.2126 48.3322 33.7542C49.3638 29.2975 49.3638 20 49.3638 20C49.3638 20 49.3638 10.7024 48.3322 6.24613Z" fill="#ED1D24"/>
<path d="M19.6328 28.4414L32.5347 20.0003L19.6328 11.5583V28.4414Z" fill="white"/>
</svg>
